<svg width="150" height="40" viewBox="0 0 150 40" fill="none" xmlns="http://www.w3.org/2000/svg">
<path d="M34.5521 19.0159V39.5556H22.9713L23.0347 11.1746H11.5808L11.5174 39.5556H0V19.0159V17.2698C0 7.74603 7.7417 0 17.2602 0C26.8104 0 34.5203 7.74603 34.5203 17.2698V19.0159H34.5521Z" fill="#2181C4"/>
<path d="M16.7842 20.6984H13.6431V17.2381C13.6431 16.3809 14.3411 15.6508 15.2295 15.6508C16.0862 15.6508 16.816 16.3492 16.816 17.2381V20.6984H16.7842Z" fill="#2181C4"/>
<path d="M20.9089 20.6984H17.7678V17.2381C17.7678 16.3809 18.4658 15.6508 19.3542 15.6508C20.2109 15.6508 20.9406 16.3492 20.9406 17.2381V20.6984H20.9089Z" fill="#2181C4"/>
<path d="M40.9929 39.5555V11.1746H55.81V16H46.5136V22.3809H53.6525V27.2063H46.5136V34.7301H56.4129V39.5555H40.9929Z" fill="#004876"/>
<path d="M85 11.1746H79.4793V39.5555H85V11.1746Z" fill="#004976"/>
<path d="M75.7671 31.5238C75.7671 36.2222 71.9597 40 67.2956 40C62.5999 40 58.8242 36.1905 58.8242 31.5238V31.4286V11.1746H64.3449V31.6508V32.127C64.3449 33.7143 65.5823 35.0794 67.1687 35.1746C68.8503 35.2381 70.2464 33.9048 70.2464 32.2222V31.6508V11.1746H75.7671V31.4286V31.5238Z" fill="#004976"/>
<path d="M94.392 33V21.72H95.704V33H94.392ZM98.3098 33V25.224H99.5738V26.552C99.8298 26.0613 100.192 25.6933 100.662 25.448C101.131 25.2027 101.659 25.08 102.246 25.08C104.091 25.08 105.014 26.104 105.014 28.152V33H103.718V28.232C103.718 27.5067 103.574 26.9787 103.286 26.648C103.008 26.3067 102.56 26.136 101.942 26.136C101.227 26.136 100.656 26.36 100.23 26.808C99.8138 27.2453 99.6058 27.832 99.6058 28.568V33H98.3098ZM110.524 33.144C109.606 33.144 108.918 32.904 108.46 32.424C108.001 31.9333 107.772 31.2293 107.772 30.312V26.232H106.252V25.224H107.772V22.84H109.068V25.224H111.532V26.232H109.068V30.184C109.068 30.792 109.196 31.256 109.452 31.576C109.708 31.8853 110.124 32.04 110.7 32.04C110.87 32.04 111.041 32.0187 111.212 31.976C111.382 31.9333 111.537 31.8907 111.676 31.848L111.9 32.84C111.761 32.9147 111.558 32.984 111.292 33.048C111.025 33.112 110.769 33.144 110.524 33.144ZM112.997 33V25.224H114.261V26.616C114.677 25.6773 115.531 25.16 116.821 25.064L117.285 25.016L117.381 26.136L116.565 26.232C115.829 26.296 115.269 26.5307 114.885 26.936C114.501 27.3307 114.309 27.8747 114.309 28.568V33H112.997ZM121.102 33.144C120.568 33.144 120.088 33.0427 119.662 32.84C119.246 32.6267 118.915 32.3387 118.67 31.976C118.424 31.6133 118.302 31.208 118.302 30.76C118.302 30.1947 118.446 29.7467 118.734 29.416C119.032 29.0853 119.518 28.8507 120.19 28.712C120.872 28.5627 121.8 28.488 122.974 28.488H123.486V27.992C123.486 27.3307 123.347 26.856 123.07 26.568C122.803 26.2693 122.371 26.12 121.774 26.12C121.304 26.12 120.851 26.1893 120.414 26.328C119.976 26.456 119.528 26.6693 119.07 26.968L118.622 26.024C119.027 25.736 119.518 25.5067 120.094 25.336C120.68 25.1653 121.24 25.08 121.774 25.08C122.776 25.08 123.518 25.3253 123.998 25.816C124.488 26.3067 124.734 27.0693 124.734 28.104V33H123.518V31.656C123.315 32.1147 123 32.4773 122.574 32.744C122.158 33.0107 121.667 33.144 121.102 33.144ZM121.31 32.168C121.95 32.168 122.472 31.9493 122.878 31.512C123.283 31.064 123.486 30.4987 123.486 29.816V29.336H122.99C122.126 29.336 121.443 29.3787 120.942 29.464C120.451 29.5387 120.104 29.6773 119.902 29.88C119.71 30.072 119.614 30.3387 119.614 30.68C119.614 31.1173 119.763 31.4747 120.062 31.752C120.371 32.0293 120.787 32.168 121.31 32.168ZM127.138 33V25.224H128.402V26.552C128.658 26.0613 129.021 25.6933 129.49 25.448C129.959 25.2027 130.487 25.08 131.074 25.08C132.919 25.08 133.842 26.104 133.842 28.152V33H132.546V28.232C132.546 27.5067 132.402 26.9787 132.114 26.648C131.837 26.3067 131.389 26.136 130.77 26.136C130.055 26.136 129.485 26.36 129.058 26.808C128.642 27.2453 128.434 27.832 128.434 28.568V33H127.138ZM139.736 33.144C138.509 33.144 137.538 32.7867 136.824 32.072C136.109 31.3467 135.752 30.3653 135.752 29.128C135.752 28.328 135.912 27.624 136.232 27.016C136.552 26.3973 136.989 25.9227 137.544 25.592C138.109 25.2507 138.76 25.08 139.496 25.08C140.552 25.08 141.378 25.4213 141.976 26.104C142.573 26.776 142.872 27.704 142.872 28.888V29.384H137.016C137.058 30.2693 137.314 30.9467 137.784 31.416C138.253 31.8747 138.904 32.104 139.736 32.104C140.205 32.104 140.653 32.0347 141.08 31.896C141.506 31.7467 141.912 31.5067 142.296 31.176L142.744 32.088C142.392 32.4187 141.944 32.68 141.4 32.872C140.856 33.0533 140.301 33.144 139.736 33.144ZM139.528 26.04C138.792 26.04 138.21 26.2693 137.784 26.728C137.357 27.1867 137.106 27.7893 137.032 28.536H141.752C141.72 27.7467 141.512 27.1333 141.128 26.696C140.754 26.2587 140.221 26.04 139.528 26.04ZM147.867 33.144C146.95 33.144 146.262 32.904 145.803 32.424C145.345 31.9333 145.115 31.2293 145.115 30.312V26.232H143.595V25.224H145.115V22.84H146.411V25.224H148.875V26.232H146.411V30.184C146.411 30.792 146.539 31.256 146.795 31.576C147.051 31.8853 147.467 32.04 148.043 32.04C148.214 32.04 148.385 32.0187 148.555 31.976C148.726 31.9333 148.881 31.8907 149.019 31.848L149.243 32.84C149.105 32.9147 148.902 32.984 148.635 33.048C148.369 33.112 148.113 33.144 147.867 33.144Z" fill="#131516"/>
</svg>
