<?xml version="1.0" encoding="utf-8"?>
<!-- Generator: Adobe Illustrator 27.6.0, SVG Export Plug-In . SVG Version: 6.00 Build 0)  -->
<svg version="1.1" id="Layer_1" xmlns="http://www.w3.org/2000/svg" xmlns:xlink="http://www.w3.org/1999/xlink" x="0px" y="0px"
	 viewBox="0 0 150 40" style="enable-background:new 0 0 150 40;" xml:space="preserve">
<style type="text/css">
	.st0{fill:#FFFFFF;}
</style>
<path class="st0" d="M34.6,19v20.5H23L23,11.2H11.6l-0.1,28.4H0V19v-1.7C0,7.7,7.7,0,17.3,0c9.6,0,17.3,7.7,17.3,17.3L34.6,19
	L34.6,19z"/>
<path class="st0" d="M16.8,20.7h-3.1v-3.5c0-0.9,0.7-1.6,1.6-1.6c0.9,0,1.6,0.7,1.6,1.6L16.8,20.7L16.8,20.7z"/>
<path class="st0" d="M20.9,20.7h-3.1v-3.5c0-0.9,0.7-1.6,1.6-1.6c0.9,0,1.6,0.7,1.6,1.6L20.9,20.7L20.9,20.7z"/>
<path class="st0" d="M41,39.6V11.2h14.8V16h-9.3v6.4h7.1v4.8h-7.1v7.5h9.9v4.8H41z"/>
<path class="st0" d="M85,11.2h-5.5v28.4H85V11.2z"/>
<path class="st0" d="M75.8,31.5c0,4.7-3.8,8.5-8.5,8.5c-4.7,0-8.5-3.8-8.5-8.5v-0.1V11.2h5.5v20.5v0.5c0,1.6,1.2,3,2.8,3
	c1.7,0.1,3.1-1.3,3.1-3v-0.6V11.2h5.5V31.5L75.8,31.5z"/>
<path class="st0" d="M94.4,33V21.7h1.3V33H94.4z M98.3,33v-7.8h1.3v1.3c0.3-0.5,0.6-0.9,1.1-1.1c0.5-0.2,1-0.4,1.6-0.4
	c1.8,0,2.8,1,2.8,3.1V33h-1.3v-4.8c0-0.7-0.1-1.3-0.4-1.6c-0.3-0.3-0.7-0.5-1.3-0.5c-0.7,0-1.3,0.2-1.7,0.7c-0.4,0.4-0.6,1-0.6,1.8
	V33H98.3z M110.5,33.1c-0.9,0-1.6-0.2-2.1-0.7c-0.5-0.5-0.7-1.2-0.7-2.1v-4.1h-1.5v-1h1.5v-2.4h1.3v2.4h2.5v1h-2.5v4
	c0,0.6,0.1,1.1,0.4,1.4c0.3,0.3,0.7,0.5,1.2,0.5c0.2,0,0.3,0,0.5-0.1c0.2,0,0.3-0.1,0.5-0.1l0.2,1c-0.1,0.1-0.3,0.1-0.6,0.2
	C111,33.1,110.8,33.1,110.5,33.1z M113,33v-7.8h1.3v1.4c0.4-0.9,1.3-1.5,2.6-1.6l0.5,0l0.1,1.1l-0.8,0.1c-0.7,0.1-1.3,0.3-1.7,0.7
	c-0.4,0.4-0.6,0.9-0.6,1.6V33H113z M121.1,33.1c-0.5,0-1-0.1-1.4-0.3c-0.4-0.2-0.7-0.5-1-0.9c-0.2-0.4-0.4-0.8-0.4-1.2
	c0-0.6,0.1-1,0.4-1.3c0.3-0.3,0.8-0.6,1.5-0.7c0.7-0.1,1.6-0.2,2.8-0.2h0.5V28c0-0.7-0.1-1.1-0.4-1.4c-0.3-0.3-0.7-0.4-1.3-0.4
	c-0.5,0-0.9,0.1-1.4,0.2c-0.4,0.1-0.9,0.3-1.3,0.6l-0.4-0.9c0.4-0.3,0.9-0.5,1.5-0.7c0.6-0.2,1.1-0.3,1.7-0.3c1,0,1.7,0.2,2.2,0.7
	c0.5,0.5,0.7,1.3,0.7,2.3V33h-1.2v-1.3c-0.2,0.5-0.5,0.8-0.9,1.1C122.2,33,121.7,33.1,121.1,33.1z M121.3,32.2
	c0.6,0,1.2-0.2,1.6-0.7c0.4-0.4,0.6-1,0.6-1.7v-0.5H123c-0.9,0-1.5,0-2,0.1c-0.5,0.1-0.8,0.2-1,0.4c-0.2,0.2-0.3,0.5-0.3,0.8
	c0,0.4,0.1,0.8,0.4,1.1C120.4,32,120.8,32.2,121.3,32.2z M127.1,33v-7.8h1.3v1.3c0.3-0.5,0.6-0.9,1.1-1.1c0.5-0.2,1-0.4,1.6-0.4
	c1.8,0,2.8,1,2.8,3.1V33h-1.3v-4.8c0-0.7-0.1-1.3-0.4-1.6c-0.3-0.3-0.7-0.5-1.3-0.5c-0.7,0-1.3,0.2-1.7,0.7c-0.4,0.4-0.6,1-0.6,1.8
	V33H127.1z M139.7,33.1c-1.2,0-2.2-0.4-2.9-1.1c-0.7-0.7-1.1-1.7-1.1-2.9c0-0.8,0.2-1.5,0.5-2.1c0.3-0.6,0.8-1.1,1.3-1.4
	c0.6-0.3,1.2-0.5,2-0.5c1.1,0,1.9,0.3,2.5,1c0.6,0.7,0.9,1.6,0.9,2.8v0.5H137c0,0.9,0.3,1.6,0.8,2c0.5,0.5,1.1,0.7,2,0.7
	c0.5,0,0.9-0.1,1.3-0.2c0.4-0.1,0.8-0.4,1.2-0.7l0.4,0.9c-0.4,0.3-0.8,0.6-1.3,0.8C140.9,33.1,140.3,33.1,139.7,33.1z M139.5,26
	c-0.7,0-1.3,0.2-1.7,0.7c-0.4,0.5-0.7,1.1-0.8,1.8h4.7c0-0.8-0.2-1.4-0.6-1.8C140.8,26.3,140.2,26,139.5,26z M147.9,33.1
	c-0.9,0-1.6-0.2-2.1-0.7c-0.5-0.5-0.7-1.2-0.7-2.1v-4.1h-1.5v-1h1.5v-2.4h1.3v2.4h2.5v1h-2.5v4c0,0.6,0.1,1.1,0.4,1.4
	c0.3,0.3,0.7,0.5,1.2,0.5c0.2,0,0.3,0,0.5-0.1c0.2,0,0.3-0.1,0.5-0.1l0.2,1c-0.1,0.1-0.3,0.1-0.6,0.2
	C148.4,33.1,148.1,33.1,147.9,33.1z"/>
</svg>
