<?xml version="1.0" encoding="utf-8"?>
<!-- Generator: Adobe Illustrator 26.0.3, SVG Export Plug-In . SVG Version: 6.00 Build 0)  -->
<svg version="1.1" id="Livello_1" xmlns="http://www.w3.org/2000/svg" xmlns:xlink="http://www.w3.org/1999/xlink" x="0px" y="0px"
	 viewBox="0 0 767 217.9" style="enable-background:new 0 0 767 217.9;" xml:space="preserve">
<style type="text/css">
	.st0{fill:#004676;}
	.st1{fill:#2581C4;}
</style>
<g>
	<path class="st0" d="M503.2,92.8H522v3.3h-22.4V60.9h21.8v3.3h-18.2v12h17.1v3.3h-17.1L503.2,92.8L503.2,92.8z"/>
	<path class="st0" d="M552.9,83c0,1.5-0.2,3-0.5,4.7c-0.3,1.6-1,3.2-2,4.6s-2.3,2.5-4,3.4c-1.7,0.9-3.8,1.4-6.4,1.4
		c-2.7,0-4.8-0.5-6.5-1.4c-1.7-0.9-3-2.1-3.9-3.4s-1.6-2.9-2-4.6c-0.3-1.6-0.5-3.2-0.5-4.7V60.9h3.6v21.7c0,1.7,0.2,3.1,0.5,4.3
		s0.8,2.2,1.3,3.1c0.5,0.8,1.2,1.5,1.8,2c0.7,0.5,1.4,0.8,2,1.1c0.7,0.3,1.3,0.4,2,0.5c0.6,0.1,1.2,0.1,1.6,0.1c0.4,0,1,0,1.6-0.1
		s1.3-0.3,2-0.5c0.7-0.3,1.4-0.6,2-1.1s1.3-1.1,1.8-2c0.5-0.8,1-1.8,1.3-3.1s0.5-2.7,0.5-4.3V60.9h3.6L552.9,83L552.9,83z"/>
	<path class="st0" d="M565,96.1h-3.6V60.9h10.8c3.6,0,6.4,0.8,8.5,2.3c2.1,1.6,3.1,3.9,3.1,7.1c0,2.4-0.8,4.5-2.3,6.2
		c-1.5,1.7-3.8,2.6-6.7,2.9L585,96.1h-4.4L571,79.8h-6L565,96.1L565,96.1z M565,76.5h6.4c1.6,0,2.9-0.2,4-0.5s2-0.8,2.7-1.3
		s1.1-1.2,1.4-1.9s0.5-1.6,0.5-2.4c0-0.8-0.2-1.6-0.5-2.4c-0.3-0.8-0.8-1.4-1.4-2s-1.5-1-2.7-1.3c-1.1-0.3-2.5-0.5-4-0.5H565V76.5z"
		/>
	<path class="st0" d="M624.7,78.5c0,2.7-0.5,5.2-1.4,7.4c-0.9,2.2-2.2,4.2-3.8,5.8c-1.6,1.6-3.6,2.9-5.8,3.8S609,97,606.4,97
		s-5-0.5-7.3-1.4c-2.2-0.9-4.2-2.2-5.8-3.8c-1.6-1.6-2.9-3.6-3.8-5.8s-1.4-4.7-1.4-7.4c0-2.7,0.5-5.2,1.4-7.4
		c0.9-2.2,2.2-4.2,3.8-5.8c1.6-1.6,3.6-2.9,5.8-3.8s4.7-1.4,7.3-1.4s5,0.5,7.3,1.4c2.2,0.9,4.2,2.2,5.8,3.8c1.6,1.6,2.9,3.6,3.8,5.8
		C624.3,73.3,624.7,75.8,624.7,78.5z M620.9,78.5c0-2-0.3-3.9-1-5.8s-1.6-3.4-2.9-4.8s-2.8-2.5-4.5-3.3s-3.8-1.2-6.1-1.2
		s-4.3,0.4-6.1,1.2c-1.8,0.8-3.3,1.9-4.5,3.3c-1.2,1.4-2.2,3-2.9,4.8s-1,3.8-1,5.8c0,2,0.3,3.9,1,5.8s1.6,3.4,2.9,4.8
		c1.2,1.4,2.8,2.5,4.5,3.3s3.8,1.2,6.1,1.2s4.3-0.4,6.1-1.2c1.8-0.8,3.3-1.9,4.5-3.3s2.2-3,2.9-4.8S620.9,80.5,620.9,78.5z"/>
	<path class="st0" d="M631.5,60.9h10.2c3.6,0,6.4,0.8,8.5,2.3c2.1,1.6,3.1,3.9,3.1,7.1c0,3.2-1,5.5-3.1,7.1s-4.9,2.4-8.5,2.4h-6.7
		v16.3h-3.6V60.9z M635.1,76.5h5.8c1.6,0,2.9-0.2,4-0.5s2-0.8,2.7-1.3s1.1-1.2,1.4-1.9s0.5-1.6,0.5-2.4c0-0.8-0.2-1.6-0.5-2.4
		c-0.3-0.8-0.8-1.4-1.4-2s-1.5-1-2.7-1.3s-2.5-0.5-4-0.5h-5.8V76.5z"/>
	<path class="st0" d="M662.4,92.8h18.8v3.3h-22.4V60.9h21.8v3.3h-18.2v12h17v3.3h-17L662.4,92.8L662.4,92.8z"/>
	<path class="st0" d="M689,96.1h-4.2l15.3-35.2h3.5l15.3,35.2h-4.2l-3.9-9.2h-18L689,96.1z M694.2,83.6h15.3l-7.6-18.5L694.2,83.6z"
		/>
	<path class="st0" d="M749,90.7L749,90.7l0.1-29.8h3.6v35.2h-4.5l-21-30.1h-0.1v30.1h-3.6V60.9h4.5L749,90.7z"/>
	<path class="st0" d="M524.7,142.7c0,1.5-0.2,3-0.5,4.6c-0.3,1.6-1,3.2-2,4.5c-1,1.4-2.3,2.5-4,3.5s-3.8,1.4-6.4,1.4
		c-2.7,0-4.8-0.5-6.5-1.4c-1.7-0.9-3-2.1-3.9-3.5c-1-1.4-1.6-2.9-2-4.5c-0.3-1.6-0.5-3.2-0.5-4.6v-22.1h3.6v21.7
		c0,1.7,0.2,3.1,0.5,4.4c0.3,1.2,0.8,2.2,1.3,3.1c0.5,0.8,1.2,1.5,1.8,2c0.7,0.5,1.4,0.9,2,1.1s1.3,0.4,2,0.5
		c0.6,0.1,1.2,0.1,1.6,0.1c0.4,0,1,0,1.6-0.1c0.7-0.1,1.3-0.3,2-0.5s1.4-0.6,2-1.1c0.7-0.5,1.3-1.1,1.8-2c0.5-0.8,1-1.9,1.3-3.1
		s0.5-2.7,0.5-4.4v-21.7h3.6L524.7,142.7L524.7,142.7z"/>
	<path class="st0" d="M558.8,150.4L558.8,150.4l0.1-29.8h3.6v35.2H558l-21-30.1h-0.1v30.1h-3.6v-35.2h4.5L558.8,150.4z"/>
	<path class="st0" d="M575,155.8h-3.6v-35.2h3.6V155.8z"/>
	<path class="st0" d="M594.7,150.4L594.7,150.4l11.6-29.8h3.9l-13.7,35.2H593l-13.4-35.2h4L594.7,150.4z"/>
	<path class="st0" d="M618.4,152.5h18.8v3.3h-22.4v-35.2h21.8v3.3h-18.3v12h17v3.3h-17V152.5z"/>
	<path class="st0" d="M646.7,155.8h-3.6v-35.2h10.8c3.6,0,6.4,0.8,8.5,2.3c2.1,1.6,3.1,3.9,3.1,7.1c0,2.4-0.8,4.5-2.3,6.2
		c-1.5,1.7-3.8,2.6-6.7,2.9l10.1,16.7h-4.4l-9.6-16.4h-6L646.7,155.8L646.7,155.8z M646.7,136.2h6.4c1.6,0,2.9-0.2,4-0.5
		c1.1-0.3,2-0.8,2.7-1.3c0.7-0.6,1.1-1.2,1.4-1.9s0.5-1.6,0.5-2.4c0-0.8-0.2-1.6-0.5-2.4c-0.3-0.8-0.8-1.4-1.4-2
		c-0.7-0.6-1.5-1-2.7-1.3c-1.1-0.3-2.5-0.5-4-0.5h-6.4V136.2z"/>
	<path class="st0" d="M688.7,126.4c-1.6-2.3-3.8-3.4-6.8-3.4c-0.9,0-1.8,0.1-2.7,0.4s-1.7,0.6-2.4,1.1c-0.7,0.5-1.3,1.2-1.7,2
		c-0.4,0.8-0.7,1.8-0.7,2.9c0,1.6,0.5,2.8,1.3,3.7c0.9,0.9,2,1.6,3.3,2.2c1.3,0.6,2.8,1.1,4.3,1.5c1.6,0.5,3,1,4.3,1.8
		c1.3,0.8,2.4,1.7,3.3,3s1.3,2.9,1.3,5c0,1.6-0.3,3-1,4.3s-1.6,2.3-2.7,3.2c-1.1,0.9-2.3,1.5-3.7,2c-1.4,0.5-2.8,0.7-4.2,0.7
		c-2.2,0-4.2-0.4-6.1-1.2s-3.6-2.1-4.9-4l3.3-2.3c0.8,1.3,1.8,2.3,3.2,3.1s3,1.2,4.8,1.2c0.9,0,1.8-0.1,2.7-0.4
		c0.9-0.3,1.7-0.7,2.4-1.2c0.7-0.6,1.3-1.2,1.8-2c0.5-0.8,0.7-1.7,0.7-2.7c0-1.2-0.3-2.2-0.8-3.1c-0.5-0.8-1.2-1.5-2-2
		s-1.8-1-2.9-1.4c-1.1-0.4-2.2-0.7-3.3-1.1c-1.1-0.4-2.2-0.8-3.3-1.2c-1.1-0.5-2-1.1-2.9-1.8s-1.5-1.6-2-2.7c-0.5-1.1-0.8-2.4-0.8-4
		c0-1.7,0.3-3.2,1-4.4c0.7-1.3,1.5-2.3,2.6-3.1c1.1-0.8,2.3-1.4,3.7-1.8s2.8-0.6,4.2-0.6c2,0,3.8,0.3,5.4,0.9
		c1.6,0.6,3.1,1.7,4.5,3.3L688.7,126.4z"/>
	<path class="st0" d="M702.6,155.8H699v-35.2h3.6V155.8z"/>
	<path class="st0" d="M723,155.8h-3.6v-31.9h-11.8v-3.3h27.1v3.3h-11.8L723,155.8L723,155.8z"/>
	<path class="st0" d="M753.9,155.8h-3.6v-15.2l-13.2-20h4.5l10.5,16.6l10.5-16.6h4.5l-13.2,20V155.8z"/>
	<path class="st0" d="M503.2,215.5h-3.6v-35.2h3.6V215.5z"/>
	<path class="st0" d="M537.6,210.1L537.6,210.1l0.1-29.8h3.6v35.2h-4.5l-21-30.1h-0.1v30.1h-3.6v-35.2h4.5L537.6,210.1z"/>
	<path class="st0" d="M566.7,186.1c-1.6-2.3-3.8-3.4-6.8-3.4c-0.9,0-1.8,0.1-2.7,0.4s-1.7,0.6-2.4,1.1c-0.7,0.5-1.3,1.2-1.7,2
		s-0.7,1.8-0.7,2.9c0,1.6,0.5,2.8,1.3,3.7c0.9,0.9,2,1.6,3.3,2.2c1.3,0.6,2.8,1.1,4.3,1.5c1.6,0.4,3,1,4.3,1.8
		c1.3,0.8,2.4,1.7,3.3,3c0.9,1.2,1.3,2.9,1.3,5c0,1.6-0.3,3-1,4.3s-1.6,2.3-2.7,3.2c-1.1,0.9-2.3,1.5-3.7,2
		c-1.4,0.5-2.8,0.7-4.2,0.7c-2.2,0-4.2-0.4-6.1-1.2s-3.6-2.1-4.9-4l3.3-2.3c0.8,1.3,1.8,2.3,3.2,3.1s3,1.2,4.8,1.2
		c0.9,0,1.8-0.1,2.7-0.4c0.9-0.3,1.7-0.7,2.4-1.2c0.7-0.5,1.3-1.2,1.8-2c0.5-0.8,0.7-1.7,0.7-2.7c0-1.2-0.3-2.2-0.8-3.1
		c-0.5-0.8-1.2-1.5-2-2c-0.8-0.6-1.8-1-2.9-1.4c-1.1-0.4-2.2-0.7-3.3-1.1c-1.1-0.4-2.2-0.8-3.3-1.2c-1.1-0.5-2-1-2.9-1.8
		c-0.8-0.7-1.5-1.6-2-2.7c-0.5-1.1-0.8-2.4-0.8-4.1c0-1.7,0.3-3.2,1-4.4c0.7-1.3,1.5-2.3,2.6-3.1c1.1-0.8,2.3-1.4,3.7-1.8
		s2.8-0.6,4.2-0.6c2,0,3.8,0.3,5.4,0.9c1.6,0.6,3.1,1.7,4.5,3.3L566.7,186.1z"/>
	<path class="st0" d="M589.4,215.5h-3.6v-31.9H574v-3.3h27.1v3.3h-11.8L589.4,215.5L589.4,215.5z"/>
	<path class="st0" d="M609.7,215.5h-3.6v-35.2h3.6V215.5z"/>
	<path class="st0" d="M630,215.5h-3.6v-31.9h-11.8v-3.3h27.1v3.3H630L630,215.5L630,215.5z"/>
	<path class="st0" d="M672.2,202.4c0,1.5-0.2,3-0.5,4.6c-0.3,1.6-1,3.2-2,4.6c-1,1.4-2.3,2.5-4,3.4s-3.8,1.4-6.4,1.4
		c-2.7,0-4.8-0.5-6.5-1.4c-1.7-0.9-3-2.1-3.9-3.4c-1-1.4-1.6-2.9-2-4.6c-0.3-1.6-0.5-3.2-0.5-4.6v-22.1h3.6V202
		c0,1.7,0.2,3.1,0.5,4.4c0.3,1.2,0.8,2.2,1.3,3.1c0.5,0.8,1.2,1.5,1.8,2c0.7,0.5,1.4,0.9,2,1.1s1.3,0.4,2,0.5
		c0.6,0.1,1.2,0.1,1.6,0.1c0.4,0,1,0,1.6-0.1c0.7-0.1,1.3-0.3,2-0.5s1.4-0.6,2-1.1c0.7-0.5,1.3-1.1,1.8-2c0.5-0.8,1-1.9,1.3-3.1
		s0.5-2.7,0.5-4.4v-21.7h3.6L672.2,202.4L672.2,202.4z"/>
	<path class="st0" d="M692.3,215.5h-3.6v-31.9h-11.8v-3.3H704v3.3h-11.8L692.3,215.5L692.3,215.5z"/>
	<path class="st0" d="M712.6,212.2h18.8v3.3H709v-35.2h21.8v3.3h-18.3v12h17v3.3h-17V212.2z"/>
</g>
<path class="st1" d="M188.2,103.6v111.8h-63.1l0.3-154.5H63.1l-0.3,154.5H0V103.6v-9.5C0,42.1,42.1,0,94.1,0l0,0
	c52,0,94.1,42.1,94.1,94.1L188.2,103.6L188.2,103.6z"/>
<g>
	<path class="st1" d="M91.4,112.7H74.3V93.9c0-4.7,3.8-8.6,8.6-8.6l0,0c4.7,0,8.6,3.8,8.6,8.6L91.4,112.7L91.4,112.7z"/>
	<path class="st1" d="M113.9,112.7H96.8V93.9c0-4.7,3.8-8.6,8.6-8.6l0,0c4.7,0,8.6,3.8,8.6,8.6L113.9,112.7L113.9,112.7z"/>
</g>
<path class="st0" d="M223.4,215.5V60.9h80.8v26.3h-50.6v34.7h38.9v26.3h-38.9v41h54v26.3L223.4,215.5L223.4,215.5z"/>
<path class="st0" d="M433.1,215.5V60.9h30.2v154.5H433.1z"/>
<path class="st0" d="M412.9,171.7c0,25.5-20.7,46.2-46.2,46.2s-46.2-20.7-46.2-46.2v-0.5V60.9h30.2v111.5v2.7
	c0,8.7,6.7,16.2,15.3,16.5c9.2,0.4,16.8-6.9,16.8-16v-3.2V60.9h30.2v110.2L412.9,171.7z"/>
</svg>
